<?xml version="1.0" encoding="UTF-8"?>
<svg id="Layer_1" data-name="Layer 1" xmlns="http://www.w3.org/2000/svg" viewBox="0 0 615.98 303.26">
  <defs>
    <style>
      .cls-1 {
        fill: #d69b31;
        stroke-width: 0px;
      }
    </style>
  </defs>
  <g>
    <path class="cls-1" d="M394.77,23.12c0,.6-.2,1.2-.6,1.8-2.4,2.9-3.6,4.9-3.6,6.1l1.8,37.8c.1,1.8-.4,3.2-1.4,4.4-1,1.1-2.4,1.7-4.3,1.8-1.9.1-3.4-.4-4.4-1.5-1.1-1.1-1.7-2.5-1.7-4.2l-1.8-37.6c0-.2-.5-1.5-1.5-3.7-1-2.3-1.5-3.6-1.5-3.9,0-.6.6-2.6,1.9-5.8.6-1.5,1.1-3.1,1.7-4.6.9-1.6,2-2.8,3.4-3.5,2-1,4.3-1.6,7-1.7,2.6-.1,4,.5,4,2,0,.2-.1.6-.3,1.4-1.7,2.3-2.6,3.9-2.5,5,0,.3.6,1.3,1.9,3.1s1.9,2.9,1.9,3.1Z"/>
    <path class="cls-1" d="M430.27,32.32c.2,5.1-1.8,7.8-6,8-3,.2-5-.8-6-2.9-.1-.1-.5-2.1-1.2-5.9-.4-2.1-1.4-3.2-3.1-3.1-2.3.1-3.4,3.7-3,10.8l1.4,29.2c.1,1.8-.4,3.2-1.5,4.4-1.1,1.1-2.6,1.7-4.6,1.8-2,.1-3.6-.4-4.8-1.5s-1.8-2.5-1.9-4.2l-2-41.5c0-.7.2-1.6.6-2.8s1-2,1.6-2.4c1.1-.6,2.7-1,4.7-1.2-4,.2-2.4.2,4.8,0,1.3-.1,3.4-.2,6.3-.5s4.3-.4,4.2-.4c6.6-.3,10,3.8,10.5,12.2Z"/>
    <path class="cls-1" d="M465.27,61.12c.2,4.7-1.3,8-4.7,9.9-2.2,1.3-5.9,2-10.8,2.2-10.7.5-16.3-2.6-16.6-9.3l-1.6-33c-.2-4.2,1.5-7.1,5-8.9,2.3-1.1,5.8-1.8,10.4-2,7.1-.3,11.6.5,13.8,2.6,1.8,1.8,2.9,5.9,3.2,12.3.2,4,.3,5.6.3,4.6,0,2-.4,3.6-1.2,4.7-1.1,1.4-3.5,2.2-7.2,2.5-4.1.2-6.7.8-7.7,1.5-1.6,1.3-2.6,2.8-2.8,4.5-.1.5-.1,2.2.1,5,.1,2.5.3,4.1.5,4.9.6,2.3,1.8,3.4,3.5,3.3,1.9-.1,3-1.1,3.3-3,.2-1.8.4-3.6.6-5.4.7-1.9,2.5-3,5.4-3.1,4.1-.1,6.3,2.1,6.5,6.7ZM451.37,33.52c-.2-4.2-1.5-6.2-3.8-6.1-2.4.1-3.5,2.3-3.3,6.5.2,4.2,1.5,6.2,3.9,6.1,2.3-.2,3.4-2.3,3.2-6.5Z"/>
    <path class="cls-1" d="M499.57,59.42c.2,4.7-1.3,8-4.7,9.9-2.2,1.3-5.9,2-10.8,2.2-10.8.6-16.3-2.5-16.6-9.2l-1.6-33c-.2-4.2,1.5-7.1,5-8.9,2.3-1.1,5.8-1.8,10.4-2,7.1-.3,11.6.5,13.8,2.6,1.8,1.8,2.9,5.9,3.2,12.3.2,4,.3,5.6.3,4.6,0,2-.4,3.6-1.2,4.7-1.1,1.4-3.5,2.2-7.2,2.5-4.1.2-6.7.8-7.7,1.5-1.6,1.3-2.6,2.8-2.8,4.5-.1.5-.1,2.2.1,5,.1,2.5.3,4.1.5,4.9.6,2.3,1.8,3.4,3.5,3.3,1.9-.1,3-1.1,3.3-3,.2-1.8.4-3.6.6-5.4.7-1.9,2.5-3,5.4-3.1,4.1-.1,6.3,2.1,6.5,6.6ZM485.67,31.82c-.2-4.2-1.5-6.2-3.8-6.1-2.4.1-3.5,2.3-3.3,6.4.2,4.2,1.5,6.2,3.9,6.1,2.3,0,3.4-2.2,3.2-6.4Z"/>
    <path class="cls-1" d="M519.47,17.12c0,.6-.2,1.2-.6,1.8-2.4,2.9-3.6,4.9-3.6,6.1l1.8,37.8c.1,1.8-.4,3.2-1.4,4.4-1,1.1-2.4,1.7-4.3,1.8-1.9.1-3.4-.4-4.4-1.5s-1.7-2.5-1.7-4.2l-1.8-37.7c0-.2-.5-1.5-1.5-3.7-1-2.3-1.5-3.6-1.5-3.8,0-.6.6-2.6,1.9-5.8.6-1.6,1.1-3.1,1.7-4.7.8-1.6,1.9-2.7,3.4-3.5,2-1,4.3-1.5,7-1.7,2.6-.1,4,.5,4,2,0,.2-.1.6-.3,1.3-1.7,2.3-2.6,4-2.5,5,0,.3.6,1.3,1.9,3.1,1.2,2,1.9,3.1,1.9,3.3Z"/>
    <path class="cls-1" d="M557.07,56.72c.2,4.3-1.6,7.4-5.4,9.2-2.4,1.1-5.9,1.7-10.5,1.9-4.7.2-8.3-.1-10.8-1.1-3.8-1.4-5.8-4.2-6-8.6l-1.6-32.5c-.2-4.3,1.4-7.3,4.8-9.1,2.3-1.2,5.9-1.9,10.9-2.1,4.8-.2,8.5.1,11,1,3.7,1.4,5.7,4.3,5.9,8.5l1.7,32.8ZM544.37,56.52l-1.5-31.1c0-.5-.4-1.2-1-2.1-.8-1.1-1.7-1.6-2.8-1.6-.8,0-1.6.5-2.4,1.5-.7,1-1.1,1.8-1.1,2.6l1.5,30.9c0,.6.4,1.4,1.1,2.2.9,1.1,1.8,1.6,2.8,1.6s1.8-.6,2.5-1.6c.6-.8.9-1.6.9-2.4Z"/>
    <path class="cls-1" d="M593.87,59.02c.1,1.9-.4,3.4-1.5,4.5s-2.5,1.7-4.2,1.7c-1.9.1-3.4-.4-4.5-1.4s-1.7-2.4-1.8-3.9l-1.8-37c0-.9-.5-1.7-1.2-2.5s-1.5-1.1-2.3-1.1c-.9,0-1.7.5-2.4,1.3-.6.9-.9,1.7-.9,2.5l1.8,37c.1,1.8-.4,3.2-1.5,4.3-1.1,1.1-2.5,1.6-4.3,1.7-1.9.1-3.5-.4-4.6-1.5s-1.7-2.5-1.8-4.2l-2-41.6c0-.7.2-1.6.6-2.8s.9-2,1.5-2.4c1.1-.7,2.6-1.1,4.4-1.2h4.8c1.3-.1,4.5-.4,9.6-.9,3.6-.2,6.2,1,8,3.6,1.4,1.9,2.1,4.3,2.2,7.4l1.9,36.5Z"/>
    <path class="cls-1" d="M612.37,14.32c0,.2-.5,1.5-1.6,3.9-1.1,2.4-1.6,3.6-1.6,3.9l1.6,34.2c0,.2.6,1.3,1.8,3.4,1.2,2,1.8,3.2,1.8,3.4.1,1.7-1.2,2.6-4,2.7-7.3.3-11.1-3.3-11.5-11.1l-1.4-32.6s-.4-1.1-1.1-3.1c-.7-2-1.1-3.3-1.1-4.1,0-.5.3-2.3.8-5.5.6-3.5,1.2-5.9,1.6-7.2.2-.6,1.2-1.3,3-2,.2-.1.8-.1,1.6-.2,1.5-.1,2.8.2,3.7.8s1.6,1.8,2.1,3.5c.6,2.6,1,4,1.1,4.2.4.7,1,1.7,2,3,.8,1,1.2,1.9,1.2,2.8Z"/>
  </g>
  <g>
    <path class="cls-1" d="M489.17,133.62c.1,1.7-.4,3-1.5,4.1s-2.4,1.6-4,1.7c-1.8.1-3.2-.4-4.3-1.4s-1.7-2.3-1.7-3.8c-.1-1.6.4-3,1.5-4.1s2.4-1.7,4-1.8c1.7-.1,3.1.4,4.2,1.4,1.2,1.1,1.8,2.4,1.8,3.9Z"/>
    <path class="cls-1" d="M521.17,122.02c.3,5.4-.9,9.1-3.3,11-1.9,1.4-5.4,2.2-10.6,2.5-4,.2-7.1-.1-9.2-.8-3.7-1.3-5.6-4-5.8-8.2l-1.6-34c-.3-6.8,4.3-10.4,14-10.9.1,0,.8,0,2,.1s2.2.1,2.8.1c4.1-.1,6.9,1.1,8.6,3.8,1.1,1.7,1.7,4.3,1.9,7.8.3,5.5-1.5,8.3-5.3,8.5-2.6.1-4.4-.9-5.2-3.2-.4-2.1-.8-4.2-1.2-6.4s-1.5-3.2-3.2-3.1c-.9,0-1.6.5-2.3,1.3-.6.8-.9,1.7-.9,2.4l1.5,31.7c0,.8.5,1.7,1.3,2.5.8.8,1.5,1.3,2.2,1.2,1.8-.1,2.8-1.4,3-3.9.1-2.3.1-4.6.2-6.9.6-2.6,2.2-3.9,5.1-4,2.6-.1,4.4.9,5.3,3.1.3,1.1.6,2.9.7,5.4Z"/>
    <path class="cls-1" d="M557.77,122.42c.2,4.3-1.6,7.4-5.4,9.2-2.4,1.1-5.9,1.7-10.5,1.9-4.7.2-8.3-.1-10.8-1.1-3.8-1.4-5.8-4.2-6-8.6l-1.6-32.5c-.2-4.3,1.4-7.3,4.8-9.1,2.3-1.2,5.9-1.9,10.9-2.1,4.8-.2,8.5.1,11,1,3.7,1.4,5.7,4.3,5.9,8.5l1.7,32.8ZM545.07,122.32l-1.5-31.1c0-.5-.4-1.2-1-2.1-.8-1.1-1.7-1.6-2.8-1.6-.8,0-1.6.5-2.4,1.5-.7.9-1.1,1.8-1.1,2.6l1.5,31c0,.6.4,1.4,1.1,2.2.9,1.1,1.8,1.6,2.8,1.6.9-.1,1.8-.6,2.5-1.6.6-.9,1-1.8.9-2.5Z"/>
    <path class="cls-1" d="M615.97,123.02c.1,1.6-.4,3-1.5,4.2-1.1,1.2-2.6,1.9-4.6,1.9-1.8.1-3.4-.4-4.8-1.5-1.4-1.1-2.1-2.3-2.2-3.8l-1.7-36.2c0-.6-.4-1.3-1-2.1-.8-.8-1.6-1.2-2.4-1.1s-1.6.5-2.2,1.3-.9,1.6-.9,2.1l1.8,36.6c.1,1.6-.6,3-2.1,4-1.3.9-2.7,1.5-4.2,1.5-1.9.1-3.4-.4-4.6-1.4-1.2-1.1-1.8-2.3-1.9-3.8l-1.8-36.4c0-.8-.5-1.6-1.4-2.4s-1.7-1.1-2.6-1.1c-1,.1-1.9.6-2.6,1.5s-1.1,1.7-1,2.2l1.8,36.5c.1,1.4-.4,2.7-1.5,3.9-1.1,1.2-2.5,1.9-4.2,1.9-2,.1-3.6-.5-4.8-1.7-1-1.1-1.5-2.3-1.6-3.9l-2-41.3c-.2-3.9,2.2-6,7.1-6.2.3,0,1.6,0,4.1.1s3.9.1,4.1.1,1.4-.2,3.7-.4c2.2-.3,3.5-.4,3.8-.5.3,0,1.9.1,4.9.3,3,.2,4.6.3,4.9.3s1.8-.3,4.6-.8,4.3-.8,4.5-.8c3.6-.2,6.4,1,8.3,3.5,1.5,1.9,2.3,4.3,2.5,7.3l1.5,36.2Z"/>
  </g>
</svg>