<?xml version="1.0" encoding="utf-8"?>
<!-- Generator: Adobe Illustrator 28.2.0, SVG Export Plug-In . SVG Version: 6.00 Build 0)  -->
<svg version="1.1" id="Layer_1" xmlns="http://www.w3.org/2000/svg" xmlns:xlink="http://www.w3.org/1999/xlink" x="0px" y="0px"
	 viewBox="0 0 240.19 139.26" style="enable-background:new 0 0 240.19 139.26;" xml:space="preserve">
<style type="text/css">
	.st0{display:none;}
	.st1{display:inline;}
	.st2{fill:#FFFFFF;}
</style>
<g class="st0">
	<g class="st1">
		
			<text transform="matrix(0.9988 -0.048 0.048 0.9988 -372.5344 216.5868)" style="fill:#CC0000; font-family:'ElliotSwonger2'; font-size:78.6013px;">freefont</text>
	</g>
	<g class="st1">
		
			<text transform="matrix(0.9988 -0.048 0.048 0.9988 -274.0081 277.6528)" style="fill:#CC0000; font-family:'ElliotSwonger2'; font-size:78.6013px;">.com</text>
	</g>
</g>
<g>
	<g>
		<path class="st2" d="M19,23.04c0.03,0.63-0.18,1.22-0.62,1.76c-2.43,2.9-3.62,4.95-3.56,6.15l1.82,37.84
			c0.08,1.78-0.38,3.23-1.4,4.36c-1.02,1.12-2.45,1.73-4.28,1.82c-1.88,0.09-3.36-0.4-4.44-1.48c-1.07-1.08-1.65-2.48-1.74-4.21
			L2.96,31.6c-0.01-0.21-0.5-1.46-1.48-3.74C0.51,25.57,0.01,24.29,0,24.03c-0.03-0.63,0.61-2.57,1.92-5.84
			c0.56-1.55,1.14-3.1,1.74-4.65c0.82-1.56,1.94-2.72,3.38-3.47c2-0.99,4.33-1.55,7-1.67c2.62-0.13,3.96,0.54,4.03,2.01
			c0.01,0.16-0.1,0.61-0.33,1.35c-1.73,2.29-2.56,3.95-2.51,5c0.01,0.26,0.64,1.31,1.88,3.14C18.36,21.73,18.98,22.78,19,23.04z"/>
		<path class="st2" d="M54.45,32.2c0.25,5.13-1.75,7.8-5.99,8c-3.04,0.15-5.05-0.83-6.04-2.94c-0.06-0.1-0.47-2.08-1.23-5.92
			c-0.37-2.13-1.41-3.16-3.14-3.08c-2.35,0.11-3.36,3.7-3.02,10.75l1.4,29.16c0.08,1.78-0.42,3.23-1.52,4.36
			c-1.1,1.12-2.62,1.73-4.56,1.83c-1.99,0.1-3.57-0.41-4.75-1.5c-1.18-1.1-1.81-2.48-1.89-4.16l-1.99-41.45
			c-0.03-0.68,0.18-1.61,0.65-2.79c0.47-1.18,1.01-1.96,1.62-2.36c1.12-0.63,2.68-1.02,4.67-1.17c-4.03,0.25-2.43,0.25,4.8,0
			c1.31-0.06,3.41-0.23,6.31-0.5c2.9-0.27,4.32-0.4,4.27-0.4C50.58,19.71,54.05,23.77,54.45,32.2z"/>
		<path class="st2" d="M89.52,60.97c0.23,4.71-1.35,8.01-4.72,9.91c-2.25,1.26-5.86,2.01-10.83,2.25
			c-10.73,0.52-16.26-2.58-16.58-9.28l-1.58-32.97c-0.2-4.19,1.46-7.15,4.99-8.9c2.3-1.11,5.78-1.77,10.42-2
			c7.05-0.34,11.64,0.54,13.79,2.64c1.81,1.8,2.87,5.9,3.18,12.28c0.19,4.03,0.29,5.57,0.3,4.63c-0.01,2.05-0.4,3.61-1.19,4.7
			c-1.08,1.42-3.5,2.24-7.25,2.47c-4.12,0.25-6.68,0.77-7.68,1.55c-1.61,1.34-2.56,2.83-2.84,4.46c-0.08,0.48-0.05,2.15,0.09,5.03
			c0.12,2.51,0.28,4.13,0.47,4.86c0.58,2.28,1.76,3.38,3.54,3.29c1.88-0.09,2.99-1.09,3.32-2.99c0.18-1.79,0.38-3.58,0.61-5.38
			c0.69-1.92,2.48-2.95,5.36-3.09C87.09,54.24,89.3,56.41,89.52,60.97z M75.6,33.38c-0.2-4.19-1.48-6.22-3.83-6.11
			c-2.41,0.12-3.51,2.27-3.31,6.45c0.2,4.19,1.5,6.22,3.91,6.11C74.72,39.72,75.8,37.57,75.6,33.38z"/>
		<path class="st2" d="M123.82,59.32c0.23,4.71-1.35,8.01-4.72,9.91c-2.25,1.26-5.86,2.01-10.83,2.25
			C97.54,71.99,92.02,68.9,91.7,62.2l-1.58-32.97c-0.2-4.19,1.46-7.15,4.99-8.9c2.3-1.11,5.78-1.77,10.42-2
			c7.05-0.34,11.64,0.54,13.79,2.64c1.81,1.8,2.87,5.9,3.18,12.28c0.19,4.03,0.29,5.57,0.3,4.63c-0.01,2.05-0.4,3.61-1.19,4.7
			c-1.08,1.42-3.5,2.24-7.25,2.47c-4.11,0.25-6.68,0.77-7.68,1.55c-1.61,1.34-2.56,2.83-2.84,4.46c-0.08,0.48-0.05,2.15,0.08,5.03
			c0.12,2.51,0.28,4.13,0.47,4.86c0.58,2.28,1.76,3.38,3.54,3.29c1.88-0.09,2.99-1.09,3.32-2.99c0.17-1.79,0.38-3.58,0.61-5.38
			c0.69-1.92,2.48-2.95,5.36-3.09C121.4,52.59,123.61,54.76,123.82,59.32z M109.91,31.74c-0.2-4.19-1.48-6.22-3.83-6.11
			c-2.41,0.12-3.51,2.27-3.31,6.45c0.2,4.19,1.51,6.22,3.91,6.11C109.03,38.07,110.11,35.92,109.91,31.74z"/>
		<path class="st2" d="M143.67,17.05c0.03,0.63-0.18,1.22-0.62,1.76c-2.43,2.9-3.62,4.95-3.56,6.15l1.82,37.84
			c0.09,1.78-0.38,3.23-1.4,4.36c-1.02,1.12-2.45,1.73-4.28,1.82c-1.88,0.09-3.36-0.4-4.44-1.48c-1.08-1.08-1.66-2.48-1.74-4.21
			l-1.81-37.69c-0.01-0.21-0.5-1.46-1.48-3.74c-0.97-2.29-1.47-3.56-1.48-3.82c-0.03-0.63,0.61-2.57,1.92-5.84
			c0.56-1.55,1.14-3.1,1.74-4.65c0.82-1.56,1.94-2.72,3.37-3.47c2-0.99,4.33-1.55,7-1.67c2.62-0.13,3.96,0.54,4.03,2.01
			c0.01,0.16-0.1,0.61-0.33,1.35c-1.73,2.29-2.56,3.95-2.51,5c0.01,0.26,0.64,1.31,1.88,3.14
			C143.03,15.74,143.66,16.79,143.67,17.05z"/>
		<path class="st2" d="M181.29,56.57c0.21,4.34-1.59,7.41-5.38,9.22c-2.36,1.06-5.87,1.7-10.53,1.92
			c-4.71,0.23-8.29-0.13-10.75-1.05c-3.79-1.39-5.79-4.25-6-8.59l-1.56-32.53c-0.21-4.29,1.4-7.32,4.83-9.11
			c2.3-1.16,5.94-1.86,10.92-2.1c4.82-0.23,8.48,0.12,10.99,1.04c3.74,1.44,5.71,4.28,5.92,8.52L181.29,56.57z M168.62,56.39
			l-1.49-31.1c-0.02-0.52-0.37-1.21-1.04-2.07c-0.79-1.11-1.73-1.64-2.83-1.59c-0.84,0.04-1.63,0.54-2.37,1.49
			c-0.74,0.95-1.09,1.82-1.05,2.6l1.49,30.95c0.03,0.63,0.38,1.37,1.05,2.23c0.89,1.11,1.81,1.64,2.75,1.6
			c0.94-0.04,1.78-0.58,2.52-1.61C168.32,58,168.65,57.17,168.62,56.39z"/>
		<path class="st2" d="M218.15,58.87c0.09,1.89-0.42,3.37-1.52,4.45c-1.1,1.08-2.52,1.66-4.25,1.74c-1.88,0.09-3.39-0.39-4.52-1.44
			c-1.13-1.05-1.73-2.36-1.8-3.93l-1.78-36.96c-0.04-0.89-0.46-1.71-1.25-2.46c-0.79-0.75-1.54-1.11-2.27-1.07
			c-0.93,0.04-1.72,0.49-2.35,1.33c-0.63,0.85-0.93,1.69-0.89,2.53l1.78,36.96c0.08,1.78-0.43,3.2-1.54,4.25
			c-1.11,1.05-2.54,1.62-4.27,1.7c-1.95,0.09-3.47-0.4-4.55-1.48c-1.08-1.08-1.66-2.48-1.75-4.21l-2-41.59
			c-0.03-0.68,0.16-1.61,0.58-2.79c0.42-1.18,0.93-1.96,1.54-2.36c1.12-0.68,2.57-1.07,4.35-1.16c0.58-0.03,1.4-0.03,2.48,0
			c1.08,0.03,1.85,0.03,2.32,0.01c1.31-0.06,4.52-0.38,9.63-0.93c3.56-0.17,6.24,1.01,8.04,3.55c1.35,1.88,2.1,4.34,2.24,7.38
			L218.15,58.87z"/>
		<path class="st2" d="M236.62,14.16c0.01,0.21-0.52,1.49-1.58,3.85c-1.07,2.36-1.6,3.65-1.59,3.85l1.64,34.15
			c0.01,0.21,0.6,1.33,1.78,3.38c1.17,2.04,1.77,3.17,1.78,3.38c0.08,1.67-1.24,2.58-3.96,2.71c-7.28,0.35-11.1-3.35-11.47-11.1
			l-1.56-32.42c0-0.05-0.37-1.07-1.09-3.06c-0.73-1.98-1.1-3.34-1.14-4.08c-0.02-0.47,0.26-2.29,0.84-5.47
			c0.62-3.49,1.16-5.88,1.62-7.16c0.23-0.64,1.22-1.32,2.97-2.03c0.21-0.06,0.75-0.12,1.64-0.16c1.52-0.07,2.75,0.2,3.7,0.81
			c0.95,0.61,1.64,1.77,2.09,3.48c0.65,2.59,1,3.99,1.07,4.2c0.35,0.72,1.03,1.71,2.03,2.97C236.17,12.37,236.58,13.27,236.62,14.16
			z"/>
	</g>
	<g>
		<path class="st2" d="M113.44,133.48c0.08,1.67-0.42,3.04-1.5,4.08c-1.08,1.05-2.4,1.61-3.97,1.69c-1.78,0.09-3.21-0.4-4.28-1.45
			c-1.07-1.05-1.65-2.31-1.72-3.77c-0.08-1.62,0.42-2.98,1.5-4.09c1.08-1.1,2.4-1.69,3.97-1.76c1.67-0.08,3.08,0.4,4.2,1.45
			C112.77,130.68,113.37,131.97,113.44,133.48z"/>
		<path class="st2" d="M145.38,121.88c0.26,5.44-0.85,9.12-3.33,11.02c-1.87,1.4-5.4,2.23-10.58,2.48
			c-4.03,0.19-7.11-0.08-9.25-0.82c-3.68-1.29-5.62-4.03-5.82-8.22l-1.63-34c-0.33-6.8,4.33-10.44,13.96-10.9
			c0.1,0,0.77,0.04,2.01,0.14c1.24,0.1,2.17,0.13,2.8,0.1c4.09-0.14,6.95,1.11,8.6,3.76c1.08,1.73,1.7,4.32,1.87,7.78
			c0.26,5.5-1.52,8.34-5.34,8.52c-2.62,0.13-4.35-0.95-5.19-3.21c-0.36-2.08-0.75-4.2-1.17-6.36c-0.42-2.16-1.49-3.19-3.22-3.11
			c-0.89,0.04-1.64,0.49-2.26,1.33c-0.62,0.84-0.9,1.66-0.87,2.44l1.52,31.72c0.04,0.84,0.46,1.68,1.26,2.54
			c0.8,0.85,1.54,1.26,2.22,1.23c1.83-0.09,2.82-1.4,2.96-3.92c0.05-2.31,0.12-4.62,0.22-6.94c0.56-2.55,2.25-3.89,5.08-4.02
			c2.62-0.13,4.4,0.89,5.34,3.05C144.99,117.57,145.26,119.37,145.38,121.88z"/>
		<path class="st2" d="M182,122.34c0.21,4.34-1.59,7.41-5.38,9.22c-2.36,1.06-5.87,1.7-10.53,1.92c-4.71,0.23-8.3-0.13-10.75-1.05
			c-3.79-1.39-5.79-4.25-6-8.59l-1.56-32.53c-0.21-4.29,1.41-7.32,4.83-9.11c2.3-1.16,5.94-1.86,10.92-2.09
			c4.81-0.23,8.48,0.12,10.99,1.04c3.74,1.44,5.71,4.28,5.92,8.52L182,122.34z M169.32,122.15l-1.49-31.1
			c-0.03-0.52-0.37-1.21-1.04-2.07c-0.79-1.11-1.73-1.64-2.83-1.59c-0.84,0.04-1.63,0.54-2.37,1.49c-0.74,0.95-1.09,1.82-1.05,2.6
			l1.49,30.95c0.03,0.63,0.38,1.37,1.05,2.23c0.89,1.11,1.81,1.64,2.75,1.6c0.94-0.05,1.78-0.58,2.52-1.61
			C169.03,123.76,169.36,122.94,169.32,122.15z"/>
		<path class="st2" d="M240.18,122.91c0.08,1.57-0.44,2.96-1.53,4.17c-1.1,1.21-2.64,1.86-4.63,1.95c-1.83,0.09-3.44-0.4-4.83-1.46
			c-1.39-1.06-2.12-2.33-2.19-3.79l-1.74-36.19c-0.03-0.63-0.35-1.32-0.96-2.08c-0.77-0.8-1.58-1.18-2.42-1.14
			c-0.84,0.04-1.58,0.48-2.22,1.33c-0.64,0.85-0.95,1.55-0.92,2.13l1.76,36.58c0.08,1.62-0.62,2.97-2.09,4.04
			c-1.27,0.95-2.68,1.47-4.25,1.54c-1.88,0.09-3.42-0.39-4.59-1.43c-1.18-1.05-1.8-2.33-1.88-3.84l-1.75-36.43
			c-0.04-0.84-0.49-1.64-1.35-2.41c-0.86-0.77-1.74-1.14-2.64-1.09c-1.01,0.05-1.87,0.56-2.59,1.54c-0.72,0.98-1.07,1.73-1.04,2.25
			l1.75,36.51c0.07,1.41-0.43,2.72-1.49,3.93c-1.06,1.21-2.48,1.85-4.25,1.94c-2.03,0.1-3.62-0.48-4.77-1.74
			c-0.99-1.05-1.52-2.34-1.59-3.86l-1.98-41.3c-0.19-3.93,2.18-6.01,7.1-6.24c0.26-0.01,1.64,0.01,4.13,0.08
			c2.49,0.06,3.87,0.09,4.13,0.08c0.21-0.01,1.43-0.16,3.68-0.45c2.24-0.29,3.52-0.44,3.83-0.46c0.26-0.01,1.88,0.09,4.86,0.32
			c2.97,0.23,4.59,0.33,4.85,0.32c0.26-0.01,1.81-0.27,4.64-0.77c2.83-0.5,4.33-0.76,4.49-0.77c3.61-0.17,6.37,0.98,8.27,3.46
			c1.51,1.92,2.33,4.35,2.47,7.28L240.18,122.91z"/>
	</g>
</g>
</svg>
